<?xml version="1.0" encoding="UTF-8" standalone="no"?>
<!-- Created with Inkscape (http://www.inkscape.org/) -->

<svg
   xmlns:dc="http://purl.org/dc/elements/1.1/"
   xmlns:cc="http://creativecommons.org/ns#"
   xmlns:rdf="http://www.w3.org/1999/02/22-rdf-syntax-ns#"
   xmlns:svg="http://www.w3.org/2000/svg"
   xmlns="http://www.w3.org/2000/svg"
   xmlns:sodipodi="http://sodipodi.sourceforge.net/DTD/sodipodi-0.dtd"
   xmlns:inkscape="http://www.inkscape.org/namespaces/inkscape"
   width="59.187546mm"
   height="23.822924mm"
   viewBox="0 0 59.187546 23.822924"
   version="1.1"
   id="svg919"
   inkscape:version="0.92.4 (f8dce91, 2019-08-02)"
   sodipodi:docname="FishLogo.svg">
  <defs
     id="defs913" />
  <sodipodi:namedview
     id="base"
     pagecolor="#ffffff"
     bordercolor="#666666"
     borderopacity="1.0"
     inkscape:pageopacity="0.0"
     inkscape:pageshadow="2"
     inkscape:zoom="0.35"
     inkscape:cx="-86.161872"
     inkscape:cy="-459.60898"
     inkscape:document-units="mm"
     inkscape:current-layer="layer1"
     showgrid="false"
     fit-margin-top="0"
     fit-margin-left="0"
     fit-margin-right="0"
     fit-margin-bottom="0"
     inkscape:window-width="1920"
     inkscape:window-height="1022"
     inkscape:window-x="0"
     inkscape:window-y="28"
     inkscape:window-maximized="1" />
  <metadata
     id="metadata916">
    <rdf:RDF>
      <cc:Work
         rdf:about="">
        <dc:format>image/svg+xml</dc:format>
        <dc:type
           rdf:resource="http://purl.org/dc/dcmitype/StillImage" />
        <dc:title></dc:title>
      </cc:Work>
    </rdf:RDF>
  </metadata>
  <g
     inkscape:label="Layer 1"
     inkscape:groupmode="layer"
     id="layer1"
     transform="translate(-3.1422334,-3.405533)">
    <g
       id="g1582"
       transform="matrix(0.69357502,0,0,0.69357502,-33.808247,-13.981007)"
       inkscape:export-xdpi="96"
       inkscape:export-ydpi="96">
      <path
         sodipodi:nodetypes="ccccccc"
         inkscape:connector-curvature="0"
         id="rect1397-3"
         d="m 113.14942,42.068177 16.99964,16.999638 c 8.88539,-8.797238 8.45999,-8.540196 8.45999,-8.540196 l -8.50009,-8.500091 8.50009,-8.500089 -8.45943,-8.459437 z"
         style="fill:#83e8ba;fill-opacity:1;stroke:none;stroke-width:0.19624777" />
      <path
         id="path1524-7-0"
         d="m 100.14062,29.234375 -0.835932,0.855469 -11.886719,11.982422 0.08203,0.08398 -0.08203,0.08398 11.886719,11.982422 0.835932,0.855469 0.006,-0.0059 0.006,0.0059 c 0,0 3.84998,-1.85973 7.22266,-5.232422 3.37268,-3.372692 5.69336,-7.683594 5.69336,-7.683594 l -0.006,-0.0059 0.006,-0.0059 c 0,0 -2.32068,-4.310902 -5.69336,-7.683594 -3.37268,-3.372692 -7.22266,-5.232422 -7.22266,-5.232422 l -0.006,0.0059 z"
         style="opacity:1;fill:#83e8ba;fill-opacity:1;stroke:none;stroke-width:18.45231628;stroke-linecap:butt;stroke-linejoin:miter;stroke-miterlimit:3.5;stroke-dasharray:none;stroke-opacity:1;paint-order:stroke markers fill"
         inkscape:connector-curvature="0" />
      <path
         id="rect1474-9"
         d="m 61.908203,25.152344 -8.576172,8.576172 8.539063,8.539062 v 0.128906 l -8.595703,8.595704 8.423828,8.423828 h 34.101562 c 0.0058,-0.0057 0.195313,-0.195313 0.195313,-0.195313 l -8.615235,-8.757812 v -0.0039 c 0,0 -0.002,0.002 -0.002,0.002 l -0.04102,-0.04102 -4.574219,4.574219 c -1.41705,1.139403 -2.900861,2.046875 -4.035156,2.046875 -1.345285,0 -3.170299,-1.288562 -4.806641,-2.722657 l -3.515573,-3.51372 c -0.0877,-0.100798 -0.337891,-0.378907 -0.337891,-0.378907 v 0.04102 l -0.814453,-0.814453 c -1.305066,-1.432786 -3.427734,-4.215485 -3.427734,-7.265625 0,-3.022972 2.084609,-5.782218 3.392578,-7.226563 l 4.083984,-4.083984 c 1.85409,-1.69249 4.112424,-3.462891 5.484375,-3.462891 1.852245,0 5.43397,3.225052 7.398438,5.134766 l 1.382812,1.382812 8.658203,-8.857421 -0.121093,-0.121094 z"
         style="opacity:1;fill:#83e8ba;fill-opacity:1;stroke:none;stroke-width:14.68161392;stroke-linecap:butt;stroke-linejoin:miter;stroke-miterlimit:3.5;stroke-dasharray:none;stroke-opacity:1;paint-order:stroke markers fill"
         inkscape:connector-curvature="0" />
    </g>
  </g>
</svg>
