<?xml version="1.0" encoding="UTF-8" standalone="no"?>
<!-- Created with Inkscape (http://www.inkscape.org/) -->

<svg
   xmlns:dc="http://purl.org/dc/elements/1.1/"
   xmlns:cc="http://creativecommons.org/ns#"
   xmlns:rdf="http://www.w3.org/1999/02/22-rdf-syntax-ns#"
   xmlns:svg="http://www.w3.org/2000/svg"
   xmlns="http://www.w3.org/2000/svg"
   xmlns:sodipodi="http://sodipodi.sourceforge.net/DTD/sodipodi-0.dtd"
   xmlns:inkscape="http://www.inkscape.org/namespaces/inkscape"
   width="37.282845mm"
   height="26.857071mm"
   viewBox="0 0 37.282845 26.857071"
   version="1.1"
   id="svg1105"
   inkscape:version="0.92.4 (f8dce91, 2019-08-02)"
   sodipodi:docname="AboutIcon.svg">
  <defs
     id="defs1099" />
  <sodipodi:namedview
     id="base"
     pagecolor="#ffffff"
     bordercolor="#666666"
     borderopacity="1.0"
     inkscape:pageopacity="0.0"
     inkscape:pageshadow="2"
     inkscape:zoom="1"
     inkscape:cx="-75.25853"
     inkscape:cy="163.19833"
     inkscape:document-units="mm"
     inkscape:current-layer="layer1"
     showgrid="false"
     fit-margin-top="0"
     fit-margin-left="0"
     fit-margin-right="0"
     fit-margin-bottom="0"
     inkscape:window-width="1920"
     inkscape:window-height="1022"
     inkscape:window-x="0"
     inkscape:window-y="28"
     inkscape:window-maximized="1" />
  <metadata
     id="metadata1102">
    <rdf:RDF>
      <cc:Work
         rdf:about="">
        <dc:format>image/svg+xml</dc:format>
        <dc:type
           rdf:resource="http://purl.org/dc/dcmitype/StillImage" />
        <dc:title></dc:title>
      </cc:Work>
    </rdf:RDF>
  </metadata>
  <g
     inkscape:label="Layer 1"
     inkscape:groupmode="layer"
     id="layer1"
     transform="translate(-0.25739073,-270.98915)">
    <g
       transform="matrix(0.17797554,0,0,0.17797554,-134.02596,223.84351)"
       id="g1061">
      <g
         transform="translate(15.032443,32.04962)"
         id="g1613">
        <ellipse
           style="opacity:1;fill:#f2f2f2;fill-opacity:1;stroke:none;stroke-width:2.91978168;stroke-linecap:butt;stroke-linejoin:round;stroke-miterlimit:4;stroke-dasharray:none;stroke-dashoffset:0;stroke-opacity:1;paint-order:stroke markers fill"
           id="path1476"
           cx="832.47046"
           cy="280.34567"
           rx="34.890652"
           ry="36.83416" />
        <path
           style="fill:none;stroke:#000000;stroke-width:1px;stroke-linecap:butt;stroke-linejoin:miter;stroke-opacity:1"
           d="m 821.45728,249.98987 c 0,0 4.9976,21.28608 -15.36299,28.31974 -11.66686,44.5702 47.70955,24.33499 48.05687,24.98679 0,0 -6.96549,-2.96033 -4.92943,-12.77043 2.03605,-9.81011 4.81053,-13.27749 1.48076,-28.87502 -3.32976,-15.59753 -16.47357,-22.39666 -29.24521,-11.66108 l -2.77644,-12.40144 c 2.96154,-6.10818 48.86541,-11.84616 50.16109,44.42311 0,0 -0.46131,23.37937 -5.55288,32.76204 0,0 -7.21876,10.55049 0.18509,18.32453 L 795.914,330.69185 c 14.62261,-1.29567 9.84865,-12.0935 9.84865,-12.0935 -28.67867,-52.71559 4.43961,-83.69379 13.05235,-80.84791"
           id="path1494"
           inkscape:connector-curvature="0"
           sodipodi:nodetypes="ccczzcccccccc" />
        <rect
           style="opacity:1;fill:#301f1f;fill-opacity:1;stroke:none;stroke-width:2.19640756;stroke-linecap:butt;stroke-linejoin:round;stroke-miterlimit:4;stroke-dasharray:none;stroke-dashoffset:0;stroke-opacity:1;paint-order:stroke markers fill"
           id="rect1500"
           width="5.6690464"
           height="12.027985"
           x="812.57556"
           y="271.46426"
           ry="3.5779448"
           rx="2.8345232" />
        <rect
           style="opacity:1;fill:#301f1f;fill-opacity:1;stroke:none;stroke-width:2.21353984;stroke-linecap:butt;stroke-linejoin:round;stroke-miterlimit:4;stroke-dasharray:none;stroke-dashoffset:0;stroke-opacity:1;paint-order:stroke markers fill"
           id="rect1500-9"
           width="5.6690464"
           height="12.216355"
           x="837.5636"
           y="269.61002"
           ry="3.6339788"
           rx="2.8345232" />
        <path
           style="fill:#f2f2f2;fill-opacity:1;stroke:#301f1f;stroke-width:2;stroke-linecap:butt;stroke-linejoin:miter;stroke-miterlimit:4;stroke-dasharray:none;stroke-opacity:1"
           d="m 821.45728,249.98987 c 0,0 4.9976,21.28608 -15.36299,28.31974 -11.66686,44.5702 47.70955,24.33499 48.05687,24.98679 0,0 -6.96549,-2.96033 -4.92943,-12.77043 2.03605,-9.81011 4.81053,-13.27749 1.48076,-28.87502 -3.32976,-15.59753 -16.47357,-22.39666 -29.24521,-11.66108 l -2.77644,-12.40144 c 2.96154,-6.10818 48.86541,-11.84616 50.16109,44.42311 0,0 -0.46131,23.37937 -5.55288,32.76204 0,0 -7.21876,10.55049 0.18509,18.32453 L 795.914,330.69185 c 14.62261,-1.29567 9.84865,-12.0935 9.84865,-12.0935 -28.67867,-52.71559 4.43961,-83.69379 13.05235,-80.84791"
           id="path1494-2"
           inkscape:connector-curvature="0"
           sodipodi:nodetypes="ccczzcccccccc" />
        <path
           style="fill:none;stroke:#301f1f;stroke-width:1.5;stroke-linecap:butt;stroke-linejoin:miter;stroke-miterlimit:4;stroke-dasharray:none;stroke-opacity:1"
           d="m 809.24093,280.71586 c -1.29567,9.9952 15.1779,7.40385 13.51203,-0.55529 v 0 c 0,0 5.51589,-3.38903 9.58865,-0.56913 -1.25932,9.45376 15.21425,6.86241 13.54838,-1.09673"
           id="path1555"
           inkscape:connector-curvature="0"
           sodipodi:nodetypes="ccccc" />
        <path
           style="fill:none;stroke:#301f1f;stroke-width:1.5;stroke-linecap:butt;stroke-linejoin:miter;stroke-miterlimit:4;stroke-dasharray:none;stroke-opacity:1"
           d="m 821.27219,294.04279 c 7.77405,8.14424 16.28847,-1.66587 16.28847,-1.66587"
           id="path1587"
           inkscape:connector-curvature="0"
           sodipodi:nodetypes="cc" />
      </g>
      <g
         id="g1032">
        <path
           style="fill:#00aa88;stroke:none;stroke-width:1px;stroke-linecap:butt;stroke-linejoin:miter;stroke-opacity:1"
           d="m 836.21025,339.44369 c 10.92068,2.22116 31.84993,-2.3047 31.84993,-2.3047 -4.07212,3.33173 -11.45654,5.47829 -11.45654,5.47829 l -5.1558,0.68858 c 0,0 -9.71753,0.90222 -13.33189,-0.39765 -3.61436,-1.29987 -4.49705,-3.27942 -1.9057,-3.46452 z"
           id="path1615"
           inkscape:connector-curvature="0"
           sodipodi:nodetypes="ccccsc" />
        <path
           id="path1119"
           style="fill:#ee9e8d;fill-opacity:1;stroke:none;stroke-width:0.48255631px;stroke-linecap:butt;stroke-linejoin:miter;stroke-opacity:1"
           d="m 818.63867,323.83008 c -5.94144,4.94717 -7.50396,14.53951 -15.46484,17.15039 -17.76209,0.60218 -33.26907,11.44168 -44.32617,24.82617 -1.96636,1.11412 -3.01483,4.30443 -0.40039,5.39063 1.60671,1.48749 5.70085,0.75598 5.82226,3.57617 -1.32882,2.72792 -5.10544,2.89729 -7.34375,4.63476 -1.0794,0.43481 -2.10224,1.75428 -0.25781,2.19141 11.81785,10.51964 27.31618,15.74388 42.83203,17.4707 2.88719,0.42066 6.10804,-0.0781 8.16602,2.39063 4.99362,4.17762 10.3842,9.7664 15.96093,11.99023 -1.67434,-6.79161 4.36314,-13.87342 11.30469,-13.47851 5.1327,0.52134 10.18607,-1.42636 15.29297,-1.95899 4.98324,-0.86313 9.88509,-1.79538 14.81836,-2.93945 4.73627,5.87167 12.15968,8.16517 19.10156,10.23633 -1.34422,-4.83384 0.43693,-10.45327 -2.86133,-14.66407 11.55028,-4.26636 22.47836,-10.44018 34.65821,-12.8457 10.9948,11.89977 23.64585,23.66443 39.7539,27.74219 -4.12055,-6.18419 -9.59506,-11.44477 -13.70312,-17.70313 -4.52623,-6.0878 -10.04364,-11.89042 -12.73047,-19.03711 1.40254,-10.7027 10.16543,-18.2864 18.35742,-24.30468 4.21617,-3.38937 8.61278,-6.50968 13.50195,-8.88282 1.95448,-0.98648 -2.05033,-0.28278 -2.87109,-0.34765 -16.21025,1.2215 -32.45408,9.7372 -40.39844,24.30664 -3.4901,4.5337 -9.96681,3.34028 -14.66992,1.81445 -10.01517,-2.58312 -18.97542,-7.95039 -27.95117,-12.89453 -4.0025,-2.83324 -2.3748,-8.88833 0.125,-11.75195 -7.24869,-1.04122 -16.24333,-0.82763 -21.00586,5.66601 -1.59907,1.49948 -4.45321,0.67371 -6.63281,0.64649 -10.92627,-1.21588 -20.1646,-8.4115 -26.70313,-16.87696 -0.78054,-0.6346 -1.57278,-2.28465 -2.375,-2.34765 z"
           inkscape:connector-curvature="0" />
        <path
           id="path1339-3-3-6-7-3"
           style="fill:#301f1f;fill-opacity:1;stroke:none;stroke-width:0.48255631px;stroke-linecap:butt;stroke-linejoin:miter;stroke-opacity:1"
           d="m 818.82812,322.41016 c -6.79034,4.67301 -8.22017,15.18301 -16.07226,17.66601 -18.25679,0.76661 -33.22302,11.40633 -44.66211,25.02344 -4.3634,3.76656 -2.17774,6.89835 2.99609,8.21484 8.79946,2.15737 -13.00749,5.21177 -4.63086,9.3086 13.06692,11.84915 31.10324,16.6924 48.34375,17.91211 6.56629,4.79765 10.13597,10.17259 20.375,15.01172 -3.55831,-8.10463 3.41503,-16.26497 11.95899,-14.3379 9.15337,-1.62367 18.37749,-2.98268 27.44726,-5.08007 5.1862,6.16683 13.44897,8.37176 20.8711,10.60351 -2.06148,-5.49915 -0.12039,-11.72419 -2.83008,-15.62304 10.93467,-4.12809 21.33161,-9.89503 32.86914,-12.26368 11.26422,12.30557 25.47061,24.84345 41.63867,28.00977 -0.53904,-3.34053 -8.97094,-11.46432 -12.27734,-16.61133 -4.99212,-6.96554 -11.35455,-13.60224 -14.76758,-21.30469 1.6342,-12.26554 12.94092,-19.96536 22.17969,-26.76953 2.59571,-2.86827 13.18629,-6.98143 11.54883,-7.99804 -17.43574,-0.48361 -36.48915,7.60381 -45.76758,23.08398 -3.99504,8.35173 -14.34228,3.0069 -20.93555,1.31055 -6.94757,-2.70995 -13.16851,-6.3659 -19.7168,-9.85157 -7.1767,-3.0232 -2.45176,-11.66164 0.38086,-12.52539 -8.30592,-1.51482 -19.2587,-1.8377 -24.57226,6.0293 -11.87317,0.92025 -22.84407,-5.78929 -29.99414,-14.88281 -1.47015,-1.63434 -2.92913,-3.27678 -4.38282,-4.92578 z m -0.082,4.21093 c 2.76213,4.99731 13.39324,11.91797 13.24805,13.39258 -6.84103,-1.31159 -17.82582,0.30389 -22.14453,-1.16797 2.70482,-4.25123 5.32572,-8.62413 8.89648,-12.22461 z m 134.91602,10.38868 c -9.74084,6.65875 -23.78573,18.65054 -26.61328,30.57226 -0.0464,7.71564 6.71044,13.52534 10.67187,19.71485 2.63604,3.9221 9.793,11.11796 9.70118,12.85156 -11.52572,-5.5557 -20.88908,-14.60372 -29.49805,-23.86719 -8.34298,-0.62897 -16.58446,4.34178 -24.44531,7.13477 -7.99124,2.12065 -14.42157,6.97038 -22.62891,8.125 -14.72692,3.04128 -29.3897,7.15945 -44.57227,6.92187 -12.09759,0.42107 -25.30603,-0.48193 -37.0039,-3.5957 -11.15722,-2.58773 -22.28964,-6.53689 -30.80469,-14.50196 5.72122,-2.55834 14.83637,-5.43014 5.42969,-8.80664 -10.41118,-2.36359 2.17897,-10.95085 5.71094,-14.99414 12.05055,-10.37041 26.72863,-14.34947 42.64062,-14.17773 12.59189,-0.38909 25.1997,0.54504 37.55078,2.89258 11.94101,1.4639 24.25032,5.19965 34.96289,10.56054 9.82004,4.21447 19.14771,9.64803 29.95117,9.65039 7.62094,-2.91262 9.4511,-14.79218 16.50586,-18.82812 5.37153,-4.1901 15.81282,-8.10918 22.44141,-9.65234 z m -83.89063,1.13867 c 3.41003,0.21222 -1.45511,8.16271 3.40821,10.57422 -4.894,-2.71325 -14.05463,-3.82542 -16.71485,-6.22461 3.39247,-3.34354 8.33992,-4.39989 12.95118,-4.34571 0.12782,-0.01 0.24546,-0.0107 0.35546,-0.004 z m 9.9004,54.01953 c 2.66139,5.51947 3.31923,13.56141 -4.47071,8.06836 -4.41519,-1.65598 -10.84222,-5.99309 -2.23047,-6.15821 2.2381,-0.61669 4.51593,-1.11689 6.70118,-1.91015 z m -69.69336,8.9375 c 6.42572,0.77546 15.35351,0.75781 15.35351,0.75781 -2.11896,2.6749 -3.06184,6.1337 -3.21875,8.8086 -5.4186,-2.79634 -12.13476,-9.56641 -12.13476,-9.56641 z"
           inkscape:connector-curvature="0" />
        <g
           id="g1295"
           transform="matrix(0.47624582,0,0,0.47624582,537.74959,232.87034)">
          <g
             id="g1283">
            <g
               id="g1273">
              <g
                 id="g1253" />
            </g>
          </g>
          <path
             id="path1285"
             style="fill:#de8787;fill-opacity:1;stroke:none;stroke-width:1px;stroke-linecap:butt;stroke-linejoin:miter;stroke-opacity:1"
             d="m 689.63065,340.46348 c 0,0 17.10614,18.05647 37.06329,20.59072 l -6.33561,-31.99481 z m -122.27719,8.55306 c 0,0 8.23629,19.00682 31.99481,29.46057 0,0 -3.80136,-6.65239 8.23629,-26.60954 z M 704.8361,220.08697 c 0,0 -24.70886,-6.01882 -39.59753,9.50341 3.80137,4.11814 43.71567,23.12496 39.28075,13.93833 -4.43492,-9.18662 0.31678,-23.44174 0.31678,-23.44174 z M 589.84486,192.52709 c 0,0 -19.32359,25.97598 -21.22427,30.09413 -1.90069,4.11814 54.4862,5.70204 54.4862,5.70204 z m -13.23158,35.01197 c -31.57914,0.10496 -61.32074,4.79262 -78.63476,18.83985 0,0 -41.499,34.84678 -37.38086,40.54882 l 21.22461,10.13672 c 0,0 4.29947,-2.03021 12.30664,-5.04883 -2.47702,-0.78303 -4.71078,-2.31867 -6.24805,-4.66601 -6.03894,-8.1959 -0.89532,-23.28305 10.33398,-22.44531 0.57108,-0.0139 1.14261,0.0256 1.71094,0.0762 10.01058,0.19642 15.26347,12.50179 10.01758,20.45898 -0.20737,0.46344 -0.44479,0.90197 -0.70313,1.32227 47.35527,-15.27042 152.21227,-38.53971 283.66016,-3.31836 l -3.16797,-10.77148 c 0,0 -18.3715,3.80218 -85.8457,-28.82618 0,0 -66.98599,-16.50701 -127.27344,-16.30664 z"
             inkscape:connector-curvature="0" />
        </g>
        <circle
           style="opacity:1;fill:#301f1f;fill-opacity:1;stroke:none;stroke-width:0.42233121;stroke-linecap:butt;stroke-linejoin:round;stroke-miterlimit:4;stroke-dasharray:none;stroke-dashoffset:0;stroke-opacity:1;paint-order:stroke markers fill"
           id="path995"
           cx="774.86365"
           cy="365.26642"
           r="4.6108241" />
        <path
           style="opacity:1;fill:#00aa88;fill-opacity:1;stroke:none;stroke-width:0.42233121;stroke-linecap:butt;stroke-linejoin:round;stroke-miterlimit:4;stroke-dasharray:none;stroke-dashoffset:0;stroke-opacity:1;paint-order:stroke markers fill"
           d="m 774.65261,362.56848 c -3.52591,-0.0281 -2.90267,6.27122 0.67344,5.41543 2.96043,-0.468 3.02448,-5.72442 -0.67344,-5.41543 z"
           id="path995-5"
           inkscape:connector-curvature="0" />
        <path
           style="color:#000000;font-style:normal;font-variant:normal;font-weight:normal;font-stretch:normal;font-size:medium;line-height:normal;font-family:sans-serif;font-variant-ligatures:normal;font-variant-position:normal;font-variant-caps:normal;font-variant-numeric:normal;font-variant-alternates:normal;font-feature-settings:normal;text-indent:0;text-align:start;text-decoration:none;text-decoration-line:none;text-decoration-style:solid;text-decoration-color:#000000;letter-spacing:normal;word-spacing:normal;text-transform:none;writing-mode:lr-tb;direction:ltr;text-orientation:mixed;dominant-baseline:auto;baseline-shift:baseline;text-anchor:start;white-space:normal;shape-padding:0;clip-rule:nonzero;display:inline;overflow:visible;visibility:visible;opacity:1;isolation:auto;mix-blend-mode:normal;color-interpolation:sRGB;color-interpolation-filters:linearRGB;solid-color:#000000;solid-opacity:1;vector-effect:none;fill:#301f1f;fill-opacity:1;fill-rule:nonzero;stroke:none;stroke-width:1.90498328;stroke-linecap:butt;stroke-linejoin:miter;stroke-miterlimit:4;stroke-dasharray:none;stroke-dashoffset:0;stroke-opacity:1;color-rendering:auto;image-rendering:auto;shape-rendering:auto;text-rendering:auto;enable-background:accumulate"
           d="m 789.11983,366.83026 c -1.29494,-1.03097 -1.87297,-0.0627 -1.93776,1.09774 -0.0859,1.5378 0.073,2.77728 -0.0922,4.85469 -0.17833,3.08571 -0.94053,9.88225 -4.48627,12.82074 -1.80745,2.18538 -6.67332,0.22444 -6.89172,2.2518 -0.0484,2.30567 7.90915,0.5816 9.71506,-2.3202 3.91458,-5.42615 3.7439,-12.14296 3.69288,-18.70477 z"
           id="path1030"
           inkscape:connector-curvature="0"
           sodipodi:nodetypes="csccccc" />
        <path
           style="color:#000000;font-style:normal;font-variant:normal;font-weight:normal;font-stretch:normal;font-size:medium;line-height:normal;font-family:sans-serif;font-variant-ligatures:normal;font-variant-position:normal;font-variant-caps:normal;font-variant-numeric:normal;font-variant-alternates:normal;font-feature-settings:normal;text-indent:0;text-align:start;text-decoration:none;text-decoration-line:none;text-decoration-style:solid;text-decoration-color:#000000;letter-spacing:normal;word-spacing:normal;text-transform:none;writing-mode:lr-tb;direction:ltr;text-orientation:mixed;dominant-baseline:auto;baseline-shift:baseline;text-anchor:start;white-space:normal;shape-padding:0;clip-rule:nonzero;display:inline;overflow:visible;visibility:visible;opacity:1;isolation:auto;mix-blend-mode:normal;color-interpolation:sRGB;color-interpolation-filters:linearRGB;solid-color:#000000;solid-opacity:1;vector-effect:none;fill:#301f1f;fill-opacity:1;fill-rule:nonzero;stroke:none;stroke-width:1.90498328;stroke-linecap:butt;stroke-linejoin:miter;stroke-miterlimit:4;stroke-dasharray:none;stroke-dashoffset:0;stroke-opacity:1;color-rendering:auto;image-rendering:auto;shape-rendering:auto;text-rendering:auto;enable-background:accumulate"
           d="m 795.05771,348.10664 c -1.28785,-0.73621 -2.21141,0.0202 -0.38916,2.77288 0.64002,0.96679 1.38009,2.02274 2.62928,4.69084 3.96806,8.49951 5.93126,16.03352 2.8027,25.14442 -1.60161,4.60634 -4.63415,8.65431 -8.47268,11.64175 -0.27662,3.49887 3.52385,-0.27278 4.46284,-1.52494 6.68183,-6.89968 8.68804,-17.36565 6.31845,-26.51376 -1.3798,-6.15904 -3.85735,-10.98084 -7.35143,-16.21119 z"
           id="path1030-6"
           inkscape:connector-curvature="0"
           sodipodi:nodetypes="cscccccc" />
        <path
           inkscape:connector-curvature="0"
           style="fill:#301f1f;fill-opacity:1;stroke:none;stroke-width:0.50930148px;stroke-linecap:butt;stroke-linejoin:miter;stroke-opacity:1"
           d="m 823.69242,355.87943 c -0.50064,10e-4 -1.00235,0.0108 -1.50501,0.0279 -5.14759,0.25498 -10.84083,1.14925 -14.52736,5.10383 3.20845,1.39728 6.14024,5.02804 5.06662,8.50917 6.7453,0.17079 13.287,-1.44634 19.58096,-3.83043 -2.21635,-0.0863 -4.65728,0.026 -7.02184,0.25022 -4.31227,0.40901 -8.35148,1.13792 -10.37694,1.46687 0,0 -1.22453,-1.24842 -0.22883,-1.41013 0.99571,-0.16171 6.80143,-0.68025 9.72304,-0.94691 1.80416,-0.16467 6.64392,-0.43438 9.83188,-0.11534 1.78224,-0.72277 3.54451,-1.49786 5.28428,-2.30589 -7.87296,-0.67249 -13.55706,-0.54455 -17.50111,-0.16185 -2.8255,0.27417 -4.76109,0.67743 -5.97911,1.00645 -1.21802,0.329 -1.67337,0.56181 -1.67337,0.56181 -2.50513,-1.95637 4.30294,-2.36773 7.99479,-2.93747 2.2958,-0.20603 7.05532,-0.0279 7.05532,-0.0279 0,0 6.26842,0.0271 12.11543,0.6074 0.92978,-0.4471 1.84499,-0.90386 2.76167,-1.35991 -12.9043,-1.65945 -21.34184,-1.66932 -25.7396,-1.01853 -2.32151,0.34354 -3.74508,0.80378 -4.56619,1.15898 -0.27506,0.11994 -1.5332,0.61869 -1.76825,0.79995 -1.44291,-0.49975 -0.81556,-1.15539 0.4009,-1.84452 0.96056,-0.41554 2.77115,-1.00921 5.19127,-1.36735 2.42012,-0.35813 10.08301,-0.43067 10.08301,-0.43067 0,0 8.89878,0.15439 16.88534,2.46216 0.29761,-0.14871 0.60141,-0.2947 0.89761,-0.44369 -7.18944,-2.09965 -14.47501,-3.77839 -21.98451,-3.75416 z"
           id="path1191" />
        <text
           xml:space="preserve"
           style="font-style:normal;font-weight:normal;font-size:31.92145348px;line-height:1.25;font-family:sans-serif;letter-spacing:0px;word-spacing:0px;fill:#de8787;fill-opacity:1;stroke:none;stroke-width:0.79803634"
           x="658.99713"
           y="554.28247"
           id="text904"
           transform="matrix(1.039917,-0.1767904,0.21571417,0.92494286,0,0)"><tspan
             sodipodi:role="line"
             id="tspan902"
             x="658.99713"
             y="554.28247"
             style="font-style:normal;font-variant:normal;font-weight:normal;font-stretch:normal;font-family:'Intro Script R';-inkscape-font-specification:'Intro Script R';fill:#de8787;fill-opacity:1;stroke-width:0.79803634">CynLu</tspan></text>
        <path
           id="path1339-3-3-6-7-3-9"
           style="fill:#301f1f;fill-opacity:1;stroke:none;stroke-width:0.48255631px;stroke-linecap:butt;stroke-linejoin:miter;stroke-opacity:1"
           d="m 818.82812,322.66406 c -6.79034,4.67301 -8.22017,15.18497 -16.07226,17.66797 -18.25679,0.76661 -33.22302,11.40438 -44.66211,25.02149 -4.3634,3.76656 -2.17774,6.89835 2.99609,8.21484 8.79946,2.15736 -13.00749,5.21176 -4.63086,9.30859 13.06692,11.84915 31.10324,16.69436 48.34375,17.91407 6.56629,4.79765 10.13597,10.17259 20.375,15.01171 -3.55831,-8.10462 3.41503,-16.2669 11.95899,-14.33984 9.15337,-1.62366 18.37749,-2.9827 27.44726,-5.08008 5.1862,6.16683 13.44897,8.37178 20.8711,10.60352 -2.06148,-5.49914 -0.12039,-11.72419 -2.83008,-15.62305 0.68681,-0.25928 1.36585,-0.54154 2.04883,-0.8125 a 7.2799182,7.2799182 0 0 0 6.21289,0.91992 7.2799182,7.2799182 0 0 0 1.52539,-0.68359 7.2799182,7.2799182 0 0 1 -3.20899,-2.09375 c 1.11063,-0.47206 2.2238,-0.93827 3.33204,-1.41797 a 7.2799182,7.2799182 0 0 0 6.00781,0.79297 7.2799182,7.2799182 0 0 0 1.52734,-0.68359 7.2799182,7.2799182 0 0 1 -3.12695,-2.00196 c 0.88493,-0.37676 1.76961,-0.75303 2.6582,-1.11914 a 7.2799182,7.2799182 0 0 0 6.40235,1.05469 7.2799182,7.2799182 0 0 0 1.52539,-0.68164 7.2799182,7.2799182 0 0 1 -3.28907,-2.1875 c 1.46516,-0.54506 2.93594,-1.07502 4.42579,-1.54688 a 7.2799182,7.2799182 0 0 0 5.95507,1.55078 7.2799182,7.2799182 0 0 0 1.59571,-0.5 7.2799182,7.2799182 0 0 1 -2.88282,-2.36718 c 0.71579,-0.17425 1.4358,-0.33567 2.16016,-0.48438 11.26422,12.30557 25.47061,24.84345 41.63867,28.00977 -0.53904,-3.34054 -8.97094,-11.46626 -12.27734,-16.61328 -4.99212,-6.96554 -11.35455,-13.60029 -14.76758,-21.30274 1.6342,-12.26553 12.94092,-19.96731 22.17969,-26.77148 2.59571,-2.86828 13.18629,-6.98143 11.54883,-7.99805 -17.43574,-0.48361 -36.48915,7.60383 -45.76758,23.08399 -1.95545,4.08792 -5.43609,4.88594 -9.25,4.44531 a 7.2799182,7.2799182 0 0 1 3.09765,-2.68164 7.2799182,7.2799182 0 0 0 -1.5957,-0.5 7.2799182,7.2799182 0 0 0 -6.5332,2.08203 c -1.51765,-0.44504 -2.99329,-0.93282 -4.38672,-1.36914 a 7.2799182,7.2799182 0 0 1 3.83008,-2.89649 7.2799182,7.2799182 0 0 0 -1.52735,-0.68359 7.2799182,7.2799182 0 0 0 -7.27539,1.79883 c -0.80906,-0.35103 -1.61021,-0.71403 -2.40429,-1.08594 a 7.2799182,7.2799182 0 0 1 3.74609,-2.77734 7.2799182,7.2799182 0 0 0 -1.52539,-0.6836 7.2799182,7.2799182 0 0 0 -6.66797,1.25782 c -0.98696,-0.51036 -1.96891,-1.03696 -2.94922,-1.5625 a 7.2799182,7.2799182 0 0 1 3.48633,-2.41602 7.2799182,7.2799182 0 0 0 -1.52539,-0.68164 7.2799182,7.2799182 0 0 0 -6.12109,0.86328 c -1.01451,-0.55048 -2.02425,-1.10201 -3.05079,-1.64844 -7.1767,-3.02319 -2.45176,-11.66359 0.38086,-12.52734 -8.30592,-1.51482 -19.2587,-1.8377 -24.57226,6.0293 -11.87317,0.92024 -22.84407,-5.78735 -29.99414,-14.88086 -1.47015,-1.63434 -2.92913,-3.27874 -4.38282,-4.92774 z m -0.082,4.21094 c 2.76213,4.99731 13.39324,11.91992 13.24805,13.39453 -6.84103,-1.3116 -17.82582,0.30389 -22.14453,-1.16797 2.70482,-4.25124 5.32572,-8.62608 8.89648,-12.22656 z m 134.91602,10.38867 c -9.74084,6.65876 -23.78573,18.65053 -26.61328,30.57227 -0.0464,7.71563 6.71044,13.52533 10.67187,19.71484 2.63604,3.9221 9.79299,11.11993 9.70118,12.85352 -11.52572,-5.5557 -20.88908,-14.60567 -29.49805,-23.86914 -8.34298,-0.62897 -16.58446,4.34177 -24.44531,7.13476 -7.99124,2.12065 -14.42157,6.97037 -22.62891,8.125 -14.72692,3.04127 -29.3897,7.15946 -44.57227,6.92188 -12.09759,0.42107 -25.30603,-0.48194 -37.0039,-3.59571 -11.15722,-2.58774 -22.28964,-6.53493 -30.80469,-14.5 5.72122,-2.55835 14.83637,-5.43209 5.42969,-8.80859 -10.41118,-2.3636 2.17896,-10.95085 5.71094,-14.99414 12.05055,-10.37042 26.72863,-14.34947 42.64062,-14.17774 12.59189,-0.38909 25.1997,0.54505 37.55078,2.89258 11.94101,1.4639 24.25032,5.20161 34.96289,10.5625 9.82004,4.21447 19.14771,9.64803 29.95117,9.65039 7.62094,-2.91262 9.4511,-14.79217 16.50586,-18.82812 5.37153,-4.1901 15.81282,-8.11112 22.44141,-9.6543 z m -83.89063,1.14063 c 3.41003,0.21221 -1.45511,8.16075 3.40821,10.57226 -4.894,-2.71325 -14.05463,-3.82543 -16.71485,-6.22461 3.39247,-3.34355 8.33992,-4.39794 12.95118,-4.34375 0.12782,-0.01 0.24546,-0.0108 0.35546,-0.004 z m 9.9004,54.01953 c 2.66138,5.51947 3.31923,13.55944 -4.47071,8.0664 -4.41519,-1.65598 -10.84222,-5.99309 -2.23047,-6.1582 2.2381,-0.6167 4.51593,-1.11494 6.70118,-1.9082 z m -69.69336,8.9375 c 6.42572,0.77546 15.35351,0.75586 15.35351,0.75586 -2.11896,2.67491 -3.06184,6.13564 -3.21875,8.81054 -5.4186,-2.79634 -12.13476,-9.5664 -12.13476,-9.5664 z"
           inkscape:connector-curvature="0" />
        <ellipse
           style="opacity:1;fill:#f2f2f2;fill-opacity:1;stroke:#301f1f;stroke-width:3;stroke-linecap:butt;stroke-linejoin:round;stroke-miterlimit:4;stroke-dasharray:none;stroke-dashoffset:0;stroke-opacity:1;paint-order:stroke markers fill"
           id="path1589"
           cx="546.89197"
           cy="801.35754"
           rx="9.6250067"
           ry="8.5144291"
           transform="rotate(-32.193655)" />
        <ellipse
           style="opacity:1;fill:#f2f2f2;fill-opacity:1;stroke:#301f1f;stroke-width:3;stroke-linecap:butt;stroke-linejoin:round;stroke-miterlimit:4;stroke-dasharray:none;stroke-dashoffset:0;stroke-opacity:1;paint-order:stroke markers fill"
           id="path1589-3"
           cx="-850.57446"
           cy="271.62308"
           rx="9.6250067"
           ry="8.5144291"
           transform="matrix(-0.98853168,-0.15101362,-0.15101362,0.98853168,0,0)" />
      </g>
    </g>
  </g>
</svg>
