<?xml version="1.0" encoding="UTF-8" standalone="no"?>
<!-- Created with Inkscape (http://www.inkscape.org/) -->

<svg
   xmlns:dc="http://purl.org/dc/elements/1.1/"
   xmlns:cc="http://creativecommons.org/ns#"
   xmlns:rdf="http://www.w3.org/1999/02/22-rdf-syntax-ns#"
   xmlns:svg="http://www.w3.org/2000/svg"
   xmlns="http://www.w3.org/2000/svg"
   xmlns:xlink="http://www.w3.org/1999/xlink"
   xmlns:sodipodi="http://sodipodi.sourceforge.net/DTD/sodipodi-0.dtd"
   xmlns:inkscape="http://www.inkscape.org/namespaces/inkscape"
   width="77.257812mm"
   height="90.351555mm"
   viewBox="0 0 77.257812 90.351555"
   version="1.1"
   id="svg1614"
   inkscape:version="0.92.4 (f8dce91, 2019-08-02)"
   sodipodi:docname="Sunfish.svg">
  <defs
     id="defs1608">
    <linearGradient
       inkscape:collect="always"
       xlink:href="#linearGradient1082"
       id="linearGradient183"
       gradientUnits="userSpaceOnUse"
       x1="419.34546"
       y1="395.22617"
       x2="417.77487"
       y2="682.6427" />
    <linearGradient
       inkscape:collect="always"
       id="linearGradient1082">
      <stop
         style="stop-color:#ff9e8d;stop-opacity:1"
         offset="0"
         id="stop1078" />
      <stop
         style="stop-color:#1b998b;stop-opacity:1"
         offset="1"
         id="stop1080" />
    </linearGradient>
    <linearGradient
       inkscape:collect="always"
       xlink:href="#linearGradient1082"
       id="linearGradient1086"
       x1="419.34546"
       y1="395.22617"
       x2="419.34546"
       y2="690.6427"
       gradientUnits="userSpaceOnUse" />
  </defs>
  <sodipodi:namedview
     id="base"
     pagecolor="#ffffff"
     bordercolor="#666666"
     borderopacity="1.0"
     inkscape:pageopacity="0.0"
     inkscape:pageshadow="2"
     inkscape:zoom="0.35"
     inkscape:cx="-225.42955"
     inkscape:cy="25.028811"
     inkscape:document-units="mm"
     inkscape:current-layer="layer1"
     showgrid="false"
     fit-margin-top="0"
     fit-margin-left="0"
     fit-margin-right="0"
     fit-margin-bottom="0"
     inkscape:window-width="1920"
     inkscape:window-height="1022"
     inkscape:window-x="0"
     inkscape:window-y="28"
     inkscape:window-maximized="1" />
  <metadata
     id="metadata1611">
    <rdf:RDF>
      <cc:Work
         rdf:about="">
        <dc:format>image/svg+xml</dc:format>
        <dc:type
           rdf:resource="http://purl.org/dc/dcmitype/StillImage" />
        <dc:title></dc:title>
      </cc:Work>
    </rdf:RDF>
  </metadata>
  <g
     inkscape:label="Layer 1"
     inkscape:groupmode="layer"
     id="layer1"
     transform="translate(-39.990141,-65.103984)">
    <g
       id="g112"
       transform="matrix(0.26458333,0,0,0.26458333,-32.521564,-32.52472)">
      <path
         inkscape:connector-curvature="0"
         id="path5433"
         d="m 367.96861,368.99125 c -0.35268,-0.004 -0.70612,0.006 -1.0615,0.0267 -15.10731,1.98321 -21.15872,18.63324 -25.29462,31.25142 -2.76864,7.71744 -4.84436,15.61785 -6.63572,23.59347 a 144.7057,145.61878 0 0 0 -60.17207,117.96459 144.7057,145.61878 0 0 0 59.61466,117.59448 c 3.66433,15.07692 8.66306,29.72664 16.73328,43.04007 6.35523,9.06257 20.84202,11.30519 28.20707,2.20486 4.90282,-6.08415 7.8577,-13.1146 9.77221,-20.54101 a 144.7057,145.61878 0 0 0 30.37807,3.32068 144.7057,145.61878 0 0 0 144.70795,-145.61908 144.7057,145.61878 0 0 0 -144.70795,-145.61905 144.7057,145.61878 0 0 0 -28.41779,2.9827 c -1.97749,-8.09313 -4.96897,-15.88985 -9.52681,-23.14818 -3.36665,-3.99753 -8.30678,-6.98184 -13.59678,-7.05176 z"
         style="opacity:1;fill:#301f1f;fill-opacity:1;stroke:none;stroke-width:3.44404578;stroke-miterlimit:4;stroke-dasharray:none;stroke-opacity:1" />
      <path
         id="path5036-09"
         d="m 335.49088,661.3894 c -2.04234,-8.2138 -3.64878,-16.56612 -5.14807,-24.90154 -29.05982,-28.57949 -45.30111,-70.76136 -39.83825,-111.26593 3.56362,-29.58319 18.64298,-56.76389 40.18873,-77.11011 1.58563,-8.22195 3.1953,-16.44827 5.1021,-24.5951 -33.35378,23.94169 -57.24953,61.31974 -60.79444,102.60727 -6.18218,51.54474 18.56566,105.21399 60.48993,135.26541 z"
         style="opacity:1;fill:url(#linearGradient183);fill-opacity:1;stroke:none;stroke-width:8.82881069;stroke-miterlimit:4;stroke-dasharray:none"
         inkscape:connector-curvature="0" />
      <path
         id="path5040-3"
         d="m 390.95147,399.00206 c 1.23948,5.04002 2.11516,10.17844 2.73876,15.36954 8.29338,-1.78958 16.78109,-2.71526 25.34587,-2.65639 1.18715,-0.0197 2.37424,-0.0208 3.56037,-0.004 36.77017,0.52407 72.86254,18.49381 96.91144,46.42271 36.40306,40.69285 40.07349,104.60223 12.49865,150.90693 -26.98293,47.86545 -87.29295,71.97602 -140.35029,60.52249 -0.57902,5.13252 -1.29977,10.25565 -2.53764,15.20099 50.51708,10.8133 106.91496,-6.2087 140.43646,-46.20054 36.47797,-41.11992 47.48605,-103.76792 24.47636,-154.11873 -21.03119,-49.3562 -70.95162,-85.32743 -124.79306,-87.85252 -2.89373,-0.20389 -5.79413,-0.31023 -8.69502,-0.33514 -0.96697,-0.008 -1.93467,-0.007 -2.90156,0.003 -9.01596,-0.0187 -17.94956,0.93206 -26.69034,2.74258 z"
         style="opacity:1;fill:url(#linearGradient1086);fill-opacity:1;stroke:none;stroke-width:8.82881069;stroke-miterlimit:4;stroke-dasharray:none"
         inkscape:connector-curvature="0" />
      <path
         id="path4897"
         d="m 367.69559,379.31863 c -4.52629,0.22596 -8.71774,6.0514 -12.46308,14.6632 -1.8727,4.30588 -3.63301,9.30603 -5.26663,14.65308 -1.63364,5.34708 -3.14351,11.03969 -4.50885,16.72439 -5.46134,22.7388 -8.659,45.36624 -8.659,45.36624 -2.1498,0.87896 -4.16062,1.90297 -6.00672,3.09936 -1.84611,1.19638 -3.53348,2.56477 -5.02919,4.12741 -1.49565,1.56259 -2.80295,3.3193 -3.94807,5.22368 -1.14514,1.90439 -2.12164,3.95928 -2.96296,6.10779 -0.93994,2.40038 -1.36041,5.06074 -1.98287,7.63598 h 15.45887 v 4.93067 h -16.74206 c -0.0653,0.3775 -0.22517,0.72355 -0.28543,1.10132 -0.74783,4.68764 -1.12652,9.37586 -1.3135,13.67302 -3.2e-4,0.008 3.1e-4,0.011 0,0.0202 h 22.28654 v 4.93068 h -22.36737 c -0.0328,2.18582 -0.10357,4.62067 -0.10357,6.38056 0,1.24936 -0.008,1.47856 -0.008,2.50324 v 5.91074 h 22.47852 v 4.93067 h -22.47854 v 14.79456 h 22.47852 v 4.93068 h -22.46336 c 3.5e-4,1.07854 -0.0124,2.09848 0.0379,3.37973 0.1424,3.58794 0.54366,7.51028 1.05585,11.41481 h 17.42406 v 4.93068 h -16.53746 c 0.72039,3.80471 1.50307,7.63316 2.86444,11.13191 0.84015,2.15928 1.82219,4.22154 2.968,6.13554 1.14587,1.91403 2.45736,3.6783 3.95565,5.24896 1.49832,1.57061 3.18622,2.94513 5.03677,4.14763 1.55075,1.00772 3.23687,1.87137 5.00393,2.65225 0.47195,3.29624 13.88257,95.76802 32.58237,90.61884 6.95669,-1.91562 10.98419,-13.84053 13.29413,-28.20488 2.30994,-14.36438 2.90375,-31.16884 2.99074,-42.84282 0.0579,-7.78267 -0.11169,-13.28421 -0.14399,-14.26409 h 1.24531 24.83018 50.08222 3.1246 v -0.1161 c 33.29255,-1.40588 61.65411,-24.62856 69.59526,-56.99074 h -14.86779 v -5.0822 h 15.87565 c 0.75867,-4.20175 1.15915,-8.45875 1.19226,-12.72832 -0.048,-40.12595 -31.70429,-73.08948 -71.79538,-74.76084 v -0.1541 h -3.1246 -50.08222 -24.83018 c 0,0 2.91394,-80.78197 -16.12321,-86.02409 -0.59359,-0.16333 -1.18283,-0.22802 -1.76565,-0.19955 z m 141.37548,146.4299 a 8.4817251,8.4817251 0 0 1 8.47965,8.48218 8.4817251,8.4817251 0 0 1 -8.47965,8.47965 8.4817251,8.4817251 0 0 1 -8.48471,-8.47965 8.4817251,8.4817251 0 0 1 8.48471,-8.48218 z m 0.16418,3.38479 c -0.36346,-4e-5 -0.7207,0.0386 -1.06342,0.10867 -0.6841,0.14024 -1.32011,0.41309 -1.87932,0.79061 -0.27929,0.18856 -0.54036,0.40438 -0.77799,0.64161 -0.71578,0.71446 -1.22613,1.63075 -1.43727,2.65983 -0.0707,0.34381 -0.10853,0.69866 -0.10867,1.06342 -7e-5,0.7274 0.14779,1.41807 0.41425,2.04855 0.26641,0.6305 0.6526,1.20028 1.12909,1.67725 0.23824,0.23848 0.49781,0.45213 0.77802,0.64161 0.84101,0.56946 1.85311,0.90186 2.94526,0.90175 0.36238,5e-5 0.71902,-0.0362 1.0609,-0.10605 2.40108,-0.49151 4.21102,-2.61723 4.21078,-5.16307 -0.003,-2.90786 -2.36381,-5.26438 -5.27168,-5.26408 z m -36.07828,11.02582 c 1.00501,-0.0552 2.01995,0.0799 2.97557,0.39404 1.0495,0.36081 2.05414,0.95352 2.95537,1.78081 0.0626,0.0618 0.12641,0.12517 0.18692,0.18945 0.21775,0.20469 0.43193,0.41106 0.64664,0.61886 l 2.27842,2.27841 c 1.06281,1.08367 2.12252,2.17229 3.22061,3.22061 l 5.61268,5.61015 c -6.39796,-0.0488 -12.80584,0.1538 -19.1973,-0.11871 -1.22019,-0.28862 -2.28404,-0.9631 -3.13218,-1.85658 -0.96288,-1.03316 -1.65182,-2.36888 -1.98793,-3.76368 -0.12476,-0.5277 -0.20136,-1.06959 -0.22734,-1.61661 -0.0322,-0.84335 0.0741,-1.67265 0.33595,-2.43756 0.27366,-0.73482 0.70012,-1.41482 1.23267,-1.99803 1.21112,-1.16369 2.63,-1.89174 4.10216,-2.18243 0.33012,-0.0611 0.66274,-0.10041 0.99776,-0.1187 z m -3.32165,17.59836 c 0.59707,0.29067 1.23272,0.50769 1.897,0.63402 5.83484,0.19826 11.67261,0.10357 17.50996,0.0986 l -10.06596,10.06595 c -3.27591,3.27589 -8.15407,3.27589 -11.42997,0 -2.56978,-2.56979 -1.27371,-8.40298 2.08897,-10.79848 z"
         style="opacity:1;fill:#cccccc;fill-opacity:1;stroke:none;stroke-width:8.82881069;stroke-miterlimit:4;stroke-dasharray:none"
         inkscape:connector-curvature="0" />
    </g>
  </g>
</svg>
